<svg width="96.000000" height="96.000000" viewBox="0 0 96 96" fill="none" xmlns="http://www.w3.org/2000/svg" xmlns:xlink="http://www.w3.org/1999/xlink">
	<desc>
			Created with Pixso.
	</desc>
	<defs/>
	<circle id="Ellipse 1" cx="48.000000" cy="48.000000" r="48.000000" fill="#C1DCDC" fill-opacity="1.000000"/>
	<path id="Vector" d="M48.46 30.59C48.16 30.47 47.83 30.47 47.53 30.59L32.61 36.55L38.62 38.96L54.01 32.8L48.46 30.59ZM57.37 34.15L41.99 40.3L48 42.71L63.38 36.55L57.37 34.15ZM65.5 38.4L49.25 44.9L49.25 64.71L65.5 58.21L65.5 38.4ZM46.75 64.71L46.75 44.9L30.5 38.4L30.5 58.21L46.75 64.71ZM46.6 28.26C47.5 27.91 48.49 27.91 49.39 28.26L67.21 35.39C67.44 35.49 67.64 35.65 67.78 35.85C67.92 36.06 67.99 36.3 68 36.55L68 58.21C67.99 58.71 67.84 59.2 67.56 59.61C67.28 60.02 66.89 60.34 66.42 60.53L48.46 67.71C48.16 67.83 47.83 67.83 47.53 67.71L29.57 60.53C29.11 60.34 28.71 60.02 28.43 59.61C28.15 59.2 28 58.71 28 58.21L28 36.55C28 36.3 28.07 36.06 28.21 35.85C28.35 35.65 28.55 35.49 28.78 35.39L46.6 28.26Z" fill="#1E1E1E" fill-opacity="1.000000" fill-rule="nonzero"/>
</svg>
