<svg width="96.000000" height="96.000000" viewBox="0 0 96 96" fill="none" xmlns="http://www.w3.org/2000/svg" xmlns:xlink="http://www.w3.org/1999/xlink">
	<desc>
			Created with Pixso.
	</desc>
	<defs/>
	<circle id="Ellipse 1" cx="48.000000" cy="48.000000" r="48.000000" fill="#C1DCDC" fill-opacity="1.000000"/>
	<path id="Vector" d="M61.6 51.07L46.26 51.07L46.73 50.62L50.74 46.76C52.36 47.55 54.14 47.97 55.96 47.99C57.78 47.99 59.58 47.51 61.14 46.6C65.88 43.84 68.42 37.44 67.94 29.5C67.91 29.12 67.75 28.77 67.47 28.5C67.19 28.23 66.82 28.07 66.43 28.05C58.17 27.59 51.52 30.03 48.65 34.59C46.78 37.56 46.73 41.15 48.47 44.59L45.6 47.36L43.15 45.01C44.35 42.46 44.27 39.82 42.88 37.61C40.7 34.15 35.72 32.31 29.54 32.65C29.15 32.68 28.78 32.83 28.5 33.1C28.23 33.37 28.06 33.72 28.04 34.1C27.67 40.03 29.59 44.83 33.2 46.92C34.4 47.63 35.78 48 37.2 48C38.48 47.98 39.74 47.71 40.9 47.19L43.33 49.53L41.73 51.07L32.79 51.07C32.37 51.07 31.96 51.23 31.66 51.52C31.36 51.81 31.2 52.2 31.2 52.61C31.2 53.02 31.36 53.41 31.66 53.7C31.96 53.99 32.37 54.15 32.79 54.15L34.71 54.15L37.36 65.59C37.51 66.27 37.9 66.88 38.47 67.32C39.04 67.76 39.75 68 40.48 68L53.91 68C54.64 68 55.35 67.76 55.92 67.32C56.49 66.88 56.88 66.27 57.04 65.59L59.68 54.15L61.6 54.15C62.02 54.15 62.43 53.99 62.73 53.7C63.03 53.41 63.2 53.02 63.2 52.61C63.2 52.2 63.03 51.81 62.73 51.52C62.43 51.23 62.02 51.07 61.6 51.07ZM51.4 36.18C53.49 32.86 58.44 30.99 64.8 31.07C64.88 37.19 62.93 41.96 59.48 43.96C57.18 45.3 54.4 45.22 51.63 43.73C50.08 41.07 50 38.4 51.4 36.18ZM40.02 44.17C38.18 45.12 36.36 45.16 34.85 44.29C32.55 42.95 31.22 39.79 31.2 35.69C35.46 35.72 38.75 36.99 40.14 39.2C41.05 40.65 41 42.4 40.02 44.17ZM53.91 64.92L40.48 64.92L38 54.15L56.4 54.15L53.91 64.92Z" fill="#1E1E1E" fill-opacity="1.000000" fill-rule="nonzero"/>
</svg>
