<svg width="48.000000" height="48.000000" viewBox="0 0 48 48" fill="none" xmlns="http://www.w3.org/2000/svg" xmlns:xlink="http://www.w3.org/1999/xlink">
	<desc>
			Created with Pixso.
	</desc>
	<defs>
		<clipPath id="clip17_8">
			<rect id="ri:instagram-fill" width="20.000000" height="20.000000" transform="translate(14.000000 14.000000)" fill="white" fill-opacity="0"/>
		</clipPath>
	</defs>
	<circle id="Ellipse 3" cx="24.000000" cy="24.000000" r="23.500000" stroke="#1E1E1E" stroke-opacity="0.500000" stroke-width="1.000000"/>
	<rect id="ri:instagram-fill" width="20.000000" height="20.000000" transform="translate(14.000000 14.000000)" fill="#FFFFFF" fill-opacity="0"/>
	<g clip-path="url(#clip17_8)">
		<path id="Vector" d="M23.99 15.66C26.26 15.66 26.54 15.67 27.43 15.71C28.32 15.75 28.92 15.89 29.45 16.1C30 16.31 30.47 16.6 30.93 17.06C31.35 17.48 31.68 17.98 31.89 18.54C32.1 19.07 32.24 19.67 32.28 20.56C32.32 21.45 32.33 21.73 32.33 24C32.33 26.26 32.32 26.54 32.28 27.43C32.24 28.32 32.1 28.92 31.89 29.45C31.68 30.01 31.35 30.51 30.93 30.93C30.51 31.35 30.01 31.68 29.45 31.89C28.92 32.1 28.32 32.24 27.43 32.28C26.54 32.32 26.26 32.33 23.99 32.33C21.73 32.33 21.45 32.32 20.56 32.28C19.67 32.24 19.07 32.1 18.54 31.89C17.98 31.68 17.48 31.35 17.06 30.93C16.64 30.51 16.31 30.01 16.1 29.45C15.89 28.92 15.75 28.32 15.71 27.43C15.67 26.54 15.66 26.26 15.66 24C15.66 21.73 15.67 21.45 15.71 20.56C15.75 19.67 15.89 19.07 16.1 18.54C16.31 17.98 16.64 17.48 17.06 17.06C17.48 16.64 17.98 16.31 18.54 16.1C19.07 15.89 19.67 15.75 20.56 15.71C21.45 15.67 21.73 15.66 23.99 15.66ZM23.99 19.83C22.89 19.83 21.83 20.27 21.05 21.05C20.27 21.83 19.83 22.89 19.83 24C19.83 25.1 20.27 26.16 21.05 26.94C21.83 27.72 22.89 28.16 23.99 28.16C25.1 28.16 26.16 27.72 26.94 26.94C27.72 26.16 28.16 25.1 28.16 24C28.16 22.89 27.72 21.83 26.94 21.05C26.16 20.27 25.1 19.83 23.99 19.83ZM29.41 19.62C29.41 19.34 29.3 19.08 29.11 18.88C28.91 18.69 28.65 18.58 28.37 18.58C28.09 18.58 27.83 18.69 27.63 18.88C27.44 19.08 27.33 19.34 27.33 19.62C27.33 19.9 27.44 20.16 27.63 20.36C27.83 20.55 28.09 20.66 28.37 20.66C28.65 20.66 28.91 20.55 29.11 20.36C29.3 20.16 29.41 19.9 29.41 19.62ZM23.99 21.5C24.66 21.5 25.29 21.76 25.76 22.23C26.23 22.7 26.49 23.33 26.49 24C26.49 24.66 26.23 25.29 25.76 25.76C25.29 26.23 24.66 26.5 23.99 26.5C23.33 26.5 22.7 26.23 22.23 25.76C21.76 25.29 21.49 24.66 21.49 24C21.49 23.33 21.76 22.7 22.23 22.23C22.7 21.76 23.33 21.5 23.99 21.5Z" fill="#1E1E1E" fill-opacity="0.750000" fill-rule="nonzero"/>
	</g>
</svg>
