<svg width="48.000000" height="48.000000" viewBox="0 0 48 48" fill="none" xmlns="http://www.w3.org/2000/svg" xmlns:xlink="http://www.w3.org/1999/xlink">
	<desc>
			Created with Pixso.
	</desc>
	<defs/>
	<circle id="Ellipse 3" cx="24.000000" cy="24.000000" r="23.500000" stroke="#1E1E1E" stroke-opacity="0.500000" stroke-width="1.000000"/>
	<path id="Vector" d="M20.28 32.25C27.83 32.25 31.95 25.99 31.95 20.58C31.95 20.4 31.95 20.23 31.95 20.05C32.75 19.47 33.44 18.75 34 17.92C33.24 18.25 32.45 18.47 31.63 18.57C32.49 18.06 33.13 17.25 33.44 16.3C32.64 16.78 31.75 17.11 30.83 17.29C30.22 16.63 29.4 16.2 28.51 16.05C27.61 15.9 26.7 16.05 25.9 16.48C25.11 16.91 24.47 17.58 24.1 18.41C23.73 19.23 23.63 20.15 23.84 21.03C22.21 20.95 20.61 20.53 19.15 19.79C17.7 19.05 16.41 18.01 15.38 16.75C14.86 17.65 14.7 18.72 14.93 19.74C15.17 20.75 15.78 21.64 16.65 22.22C16 22.2 15.37 22.03 14.8 21.71L14.8 21.77C14.8 22.72 15.12 23.64 15.72 24.37C16.32 25.1 17.16 25.6 18.09 25.79C17.73 25.89 17.37 25.94 17 25.94C16.75 25.94 16.49 25.91 16.24 25.87C16.5 26.68 17.01 27.39 17.7 27.9C18.38 28.41 19.21 28.7 20.07 28.71C18.62 29.85 16.82 30.47 14.97 30.47C14.64 30.47 14.32 30.45 14 30.41C15.87 31.61 18.05 32.25 20.28 32.25Z" fill="#1E1E1E" fill-opacity="0.750000" fill-rule="nonzero"/>
</svg>
