<svg width="96.000000" height="96.000000" viewBox="0 0 96 96" fill="none" xmlns="http://www.w3.org/2000/svg" xmlns:xlink="http://www.w3.org/1999/xlink">
	<desc>
			Created with Pixso.
	</desc>
	<defs>
		<clipPath id="clip10_123">
			<rect id="TelephoneOutbound" width="40.000000" height="40.000000" transform="translate(28.000000 28.000000)" fill="white" fill-opacity="0"/>
		</clipPath>
	</defs>
	<circle id="Ellipse 1" cx="48.000000" cy="48.000000" r="48.000000" fill="#C1DCDC" fill-opacity="1.000000"/>
	<rect id="TelephoneOutbound" width="40.000000" height="40.000000" transform="translate(28.000000 28.000000)" fill="#FFFFFF" fill-opacity="0"/>
	<g clip-path="url(#clip10_123)">
		<path id="Vector" d="M37.13 31.31C36.98 31.13 36.8 30.97 36.58 30.86C36.37 30.74 36.14 30.68 35.9 30.66C35.66 30.65 35.42 30.68 35.19 30.77C34.97 30.86 34.76 30.99 34.59 31.16L32.01 33.74C30.8 34.95 30.35 36.67 30.88 38.17C33.07 44.39 36.63 50.04 41.3 54.69C45.96 59.36 51.6 62.92 57.82 65.11C59.32 65.64 61.04 65.19 62.25 63.98L64.83 61.4C65 61.23 65.13 61.03 65.22 60.8C65.3 60.58 65.34 60.34 65.33 60.1C65.31 59.86 65.25 59.62 65.13 59.41C65.02 59.2 64.86 59.01 64.67 58.86L58.91 54.38C58.7 54.22 58.47 54.11 58.22 54.06C57.97 54.01 57.71 54.01 57.46 54.07L51.98 55.44C51.25 55.62 50.49 55.61 49.76 55.41C49.03 55.21 48.37 54.83 47.84 54.29L41.7 48.15C41.17 47.62 40.78 46.96 40.58 46.23C40.38 45.5 40.37 44.74 40.55 44.01L41.92 38.53C41.98 38.28 41.99 38.02 41.93 37.77C41.88 37.52 41.77 37.29 41.61 37.08L37.13 31.31ZM32.7 29.27C33.14 28.83 33.67 28.5 34.25 28.28C34.83 28.06 35.44 27.96 36.06 28C36.68 28.04 37.28 28.21 37.83 28.5C38.38 28.79 38.86 29.19 39.23 29.68L43.72 35.44C44.54 36.5 44.83 37.88 44.51 39.18L43.14 44.65C43.07 44.94 43.07 45.24 43.15 45.52C43.23 45.8 43.38 46.06 43.58 46.26L49.73 52.4C49.93 52.61 50.19 52.76 50.47 52.84C50.76 52.92 51.05 52.92 51.34 52.85L56.81 51.48C57.45 51.32 58.12 51.31 58.77 51.45C59.42 51.58 60.02 51.86 60.54 52.27L66.31 56.75C68.38 58.37 68.57 61.43 66.72 63.28L64.13 65.87C62.28 67.72 59.52 68.53 56.94 67.62C50.34 65.3 44.35 61.52 39.41 56.57C34.46 51.63 30.69 45.65 28.36 39.05C27.46 36.47 28.27 33.71 30.12 31.86L32.71 29.27L32.7 29.27ZM55.49 29.24C55.49 28.91 55.63 28.6 55.86 28.36C56.1 28.13 56.41 27.99 56.74 27.99L66.74 27.99C67.08 27.99 67.39 28.13 67.63 28.36C67.86 28.6 67.99 28.91 67.99 29.24L67.99 39.24C67.99 39.58 67.86 39.89 67.63 40.13C67.39 40.36 67.08 40.49 66.74 40.49C66.41 40.49 66.1 40.36 65.86 40.13C65.63 39.89 65.49 39.58 65.49 39.24L65.49 32.26L55.13 42.63C54.9 42.86 54.58 43 54.24 43C53.91 43 53.59 42.86 53.36 42.63C53.13 42.4 52.99 42.08 52.99 41.74C52.99 41.41 53.13 41.09 53.36 40.86L63.73 30.49L56.74 30.49C56.41 30.49 56.1 30.36 55.86 30.13C55.63 29.89 55.49 29.58 55.49 29.24Z" fill="#1E1E1E" fill-opacity="1.000000" fill-rule="nonzero"/>
	</g>
</svg>
