<svg width="183.220093" height="86.420776" viewBox="0 0 183.22 86.4208" fill="none" xmlns="http://www.w3.org/2000/svg" xmlns:xlink="http://www.w3.org/1999/xlink">
	<desc>
			Created with Pixso.
	</desc>
	<defs/>
	<path id="Vector 186" d="M2 36.04C3.42 22.15 2.86 4.57 20 2.12C28.14 0.95 38.48 9.42 40.99 16.53C43.08 22.44 47.77 29.01 43.37 35.12C39.92 39.92 33.86 42.04 28.33 39.26C12.62 31.37 28.19 14.47 38.56 12.28C52.7 9.28 81.71 35.32 74.73 50.44C68.75 63.4 56.57 52.64 59.95 41.72C64.71 26.36 73.36 22.24 89.64 29.53C102.35 35.23 106.84 52.95 103.56 64.69C102.88 67.12 102.86 82.15 101 81.44C82.64 74.43 97.73 46.08 111.64 43.25C127.62 40 143.83 36.89 158.51 44.36C166.4 48.38 185.6 66.63 180.36 59.49C173.8 50.55 165.75 37.88 165.64 26.24C165.6 22.77 165.23 11.71 166.06 22.25C166.91 33.1 167.41 42.68 170.13 52.66C170.74 54.88 174.73 56.69 176.42 58.07C177.85 59.24 170.9 59.92 170.14 60.16C163.53 62.2 158.79 67.11 154.67 72.45C150.99 77.22 147.62 84.65 143.21 84.41" stroke="#000000" stroke-opacity="1.000000" stroke-width="4.000000" stroke-linejoin="round" stroke-linecap="round"/>
</svg>
