<svg width="18.000000" height="18.000000" viewBox="0 0 18 18" fill="none" xmlns="http://www.w3.org/2000/svg" xmlns:xlink="http://www.w3.org/1999/xlink">
	<desc>
			Created with Pixso.
	</desc>
	<defs/>
	<path id="Vector" d="M9 9C10.19 9 11.33 8.52 12.18 7.68C13.02 6.83 13.5 5.69 13.5 4.5C13.5 3.3 13.02 2.16 12.18 1.31C11.33 0.47 10.19 0 9 0C7.8 0 6.66 0.47 5.81 1.31C4.97 2.16 4.5 3.3 4.5 4.5C4.5 5.69 4.97 6.83 5.81 7.68C6.66 8.52 7.8 9 9 9ZM12 4.5C12 5.29 11.68 6.05 11.12 6.62C10.55 7.18 9.79 7.5 9 7.5C8.2 7.5 7.44 7.18 6.87 6.62C6.31 6.05 6 5.29 6 4.5C6 3.7 6.31 2.94 6.87 2.37C7.44 1.81 8.2 1.5 9 1.5C9.79 1.5 10.55 1.81 11.12 2.37C11.68 2.94 12 3.7 12 4.5ZM18 16.5C18 18 16.5 18 16.5 18L1.5 18C1.5 18 0 18 0 16.5C0 15 1.5 10.5 9 10.5C16.5 10.5 18 15 18 16.5ZM16.5 16.49C16.49 16.12 16.26 15.01 15.25 13.99C14.27 13.02 12.43 12 9 12C5.56 12 3.72 13.02 2.74 13.99C1.73 15.01 1.5 16.12 1.5 16.49L16.5 16.49Z" fill="#1E1E1E" fill-opacity="1.000000" fill-rule="nonzero"/>
</svg>
