<svg width="89.225372" height="174.102478" viewBox="0 0 89.2254 174.102" fill="none" xmlns="http://www.w3.org/2000/svg" xmlns:xlink="http://www.w3.org/1999/xlink">
	<desc>
			Created with Pixso.
	</desc>
	<defs/>
	<path id="Vector 187" d="M2.52 2.48C33.69 9.78 27.99 7.84 52.26 27.4C57.8 31.87 66.25 37.67 67.83 43.81C70.16 52.86 50.55 74.45 39.51 62.53C32.38 54.82 34.56 44.73 46.24 44.48C65.39 44.07 79.61 60.72 84.66 73.52C90.23 87.62 83.85 100.33 68.07 105.5C60.86 107.86 49.78 103.66 56.5 96.78C70.3 82.62 83.49 106.32 80.73 117.12C75.77 136.59 43.87 156.63 16.04 146.29C7.34 143.06 10.42 140.74 14.26 139.37C18.16 137.98 28.13 131.96 25.39 134.48C20.6 138.86 14.85 139.8 8.37 141.58C0.01 143.87 16.72 156.5 21.52 160.75C24.04 162.99 27.61 167.54 28.13 170.4C29.17 176.05 19.98 159.88 18.53 154.23" stroke="#000000" stroke-opacity="1.000000" stroke-width="5.000000" stroke-linejoin="round" stroke-linecap="round"/>
</svg>
