<svg width="21.599998" height="10.500000" viewBox="0 0 21.6 10.5" fill="none" xmlns="http://www.w3.org/2000/svg" xmlns:xlink="http://www.w3.org/1999/xlink">
	<desc>
			Created with Pixso.
	</desc>
	<defs/>
	<path id="Vector" d="M21.6 9.75C21.6 9.55 21.5 9.36 21.33 9.21C21.16 9.07 20.93 9 20.7 9L15.3 9C15.06 9 14.83 9.07 14.66 9.21C14.49 9.36 14.4 9.55 14.4 9.75C14.4 9.94 14.49 10.13 14.66 10.28C14.83 10.42 15.06 10.5 15.3 10.5L20.7 10.5C20.93 10.5 21.16 10.42 21.33 10.28C21.5 10.13 21.6 9.94 21.6 9.75ZM21.6 5.25C21.6 5.05 21.5 4.86 21.33 4.71C21.16 4.57 20.93 4.5 20.7 4.5L8.1 4.5C7.86 4.5 7.63 4.57 7.46 4.71C7.29 4.86 7.2 5.05 7.2 5.25C7.2 5.44 7.29 5.63 7.46 5.78C7.63 5.92 7.86 6 8.1 6L20.7 6C20.93 6 21.16 5.92 21.33 5.78C21.5 5.63 21.6 5.44 21.6 5.25ZM21.6 0.75C21.6 0.55 21.5 0.36 21.33 0.21C21.16 0.07 20.93 0 20.7 0L0.9 0C0.66 0 0.43 0.07 0.26 0.21C0.09 0.36 0 0.55 0 0.75C0 0.94 0.09 1.13 0.26 1.28C0.43 1.42 0.66 1.5 0.9 1.5L20.7 1.5C20.93 1.5 21.16 1.42 21.33 1.28C21.5 1.13 21.6 0.94 21.6 0.75Z" fill="#1E1E1E" fill-opacity="1.000000" fill-rule="nonzero"/>
</svg>
